<?xml version="1.0" encoding="UTF-8"?>
<svg xmlns="http://www.w3.org/2000/svg" xmlns:xlink="http://www.w3.org/1999/xlink" viewBox="0 0 32 32" width="32px" height="32px">
<g id="surface47606429">
<path style="stroke:none;fill-rule:nonzero;fill:#d5dddf;fill-opacity:1;" d="M 13.867188 3.199219 C 7.988281 3.199219 3.199219 7.988281 3.199219 13.867188 C 3.199219 19.746094 7.988281 24.535156 13.867188 24.535156 C 16.421875 24.535156 18.769531 23.625 20.609375 22.117188 L 26.980469 28.488281 C 27.246094 28.765625 27.644531 28.878906 28.019531 28.78125 C 28.390625 28.683594 28.683594 28.390625 28.78125 28.019531 C 28.878906 27.644531 28.765625 27.246094 28.488281 26.980469 L 22.117188 20.609375 C 23.625 18.769531 24.535156 16.421875 24.535156 13.867188 C 24.535156 7.988281 19.746094 3.199219 13.867188 3.199219 Z M 13.867188 5.332031 C 18.59375 5.332031 22.398438 9.140625 22.398438 13.867188 C 22.398438 18.59375 18.59375 22.398438 13.867188 22.398438 C 9.140625 22.398438 5.332031 18.59375 5.332031 13.867188 C 5.332031 9.140625 9.140625 5.332031 13.867188 5.332031 Z M 13.867188 5.332031 "/>
</g>
</svg>
