<?xml version="1.0" encoding="UTF-8"?>
<svg xmlns="http://www.w3.org/2000/svg" xmlns:xlink="http://www.w3.org/1999/xlink" viewBox="0 0 32 32" width="32px" height="32px">
<g id="surface352168063">
<path style=" stroke:none;fill-rule:nonzero;fill:rgb(100%,100%,100%);fill-opacity:1;" d="M 16 1.28125 C 7.878906 1.28125 1.28125 7.878906 1.28125 16 C 1.28125 24.121094 7.878906 30.71875 16 30.71875 C 24.121094 30.71875 30.71875 24.121094 30.71875 16 C 30.71875 7.878906 24.121094 1.28125 16 1.28125 Z M 16 2.558594 C 23.429688 2.558594 29.441406 8.570312 29.441406 16 C 29.441406 23.429688 23.429688 29.441406 16 29.441406 C 8.570312 29.441406 2.558594 23.429688 2.558594 16 C 2.558594 8.570312 8.570312 2.558594 16 2.558594 Z M 15.359375 8.320312 L 15.359375 15.359375 L 8.320312 15.359375 L 8.320312 16.640625 L 15.359375 16.640625 L 15.359375 23.679688 L 16.640625 23.679688 L 16.640625 16.640625 L 23.679688 16.640625 L 23.679688 15.359375 L 16.640625 15.359375 L 16.640625 8.320312 Z M 15.359375 8.320312 "/>
</g>
</svg>
